<svg width="24" height="24" viewBox="0 0 24 24" fill="none" xmlns="http://www.w3.org/2000/svg">
<path d="M8.51009 20H8.43009C6.81845 19.9859 5.23012 19.6136 3.78009 18.91C3.51336 18.7847 3.29375 18.5773 3.1534 18.3182C3.01304 18.0591 2.95932 17.7618 3.00009 17.47C3.04444 17.1762 3.18048 16.9038 3.3888 16.6919C3.59712 16.48 3.86706 16.3394 4.16009 16.29C5.0587 16.1701 5.92318 15.8672 6.70009 15.4C5.35125 14.3454 4.31284 12.9456 3.69491 11.3488C3.07698 9.75203 2.90254 8.01783 3.19009 6.32999C3.22908 6.06264 3.34406 5.81213 3.52134 5.60825C3.69862 5.40437 3.93075 5.25572 4.19009 5.17999C4.44241 5.10075 4.71244 5.09736 4.96666 5.17025C5.22088 5.24314 5.4481 5.38909 5.62009 5.58999C6.20409 6.35577 6.93799 6.99455 7.777 7.46735C8.61601 7.94016 9.54255 8.23707 10.5001 8.33999C10.5458 7.16184 11.0521 6.04871 11.9101 5.23999C12.3385 4.82976 12.8443 4.5089 13.3979 4.2961C13.9516 4.0833 14.542 3.98281 15.1349 4.00049C15.7278 4.01818 16.3112 4.15368 16.8512 4.3991C17.3912 4.64452 17.8769 4.99496 18.2801 5.42999C18.3851 5.52286 18.5156 5.58204 18.6547 5.59987C18.7938 5.6177 18.935 5.59336 19.0601 5.52999C19.2985 5.41754 19.564 5.37521 19.8256 5.40793C20.0872 5.44066 20.3341 5.5471 20.5374 5.71484C20.7408 5.88257 20.8923 6.10468 20.9742 6.35525C21.0561 6.60581 21.0651 6.87451 21.0001 7.12999C20.7694 8.0801 20.3324 8.96778 19.7201 9.72999C19.5851 12.5747 18.331 15.2508 16.231 17.1746C14.1311 19.0984 11.3558 20.114 8.51009 20V20ZM8.51009 18H8.59009C9.75276 18.04 10.9118 17.8488 12 17.4375C13.0882 17.0262 14.084 16.4029 14.9295 15.6039C15.7751 14.8048 16.4536 13.8459 16.9257 12.7827C17.3979 11.7194 17.6543 10.5731 17.6801 9.40999C17.6966 9.09124 17.828 8.78927 18.0501 8.55999C18.294 8.25124 18.502 7.91575 18.6701 7.55999C18.3098 7.56068 17.9535 7.48532 17.6244 7.33885C17.2952 7.19238 17.0007 6.97809 16.7601 6.70999C16.5287 6.48054 16.2538 6.29957 15.9516 6.17765C15.6494 6.05574 15.3259 5.99534 15.0001 5.99999C14.671 5.99148 14.3435 6.04805 14.0363 6.16646C13.7291 6.28487 13.4483 6.46279 13.2101 6.68999C12.8887 6.99499 12.653 7.37906 12.5266 7.80376C12.4003 8.22845 12.3877 8.67889 12.4901 9.10999L12.7501 10.25L11.5801 10.33C10.3812 10.4278 9.17536 10.2638 8.04611 9.84935C6.91686 9.43495 5.89118 8.78004 5.04009 7.92999C5.00359 9.24639 5.33289 10.5471 5.99139 11.6876C6.64988 12.828 7.61176 13.7635 8.77009 14.39L9.72009 14.93L9.09009 15.83C8.40878 16.7235 7.47528 17.3923 6.41009 17.75C7.0934 17.9213 7.79566 18.0053 8.50009 18H8.51009Z" fill="black"/>
</svg>
